<svg id="Layer_1" data-name="Layer 1" xmlns="http://www.w3.org/2000/svg" xmlns:xlink="http://www.w3.org/1999/xlink" viewBox="0 0 2 2"><defs><style>.cls-1{fill:none;}.cls-2{clip-path:url(#clip-path);}.cls-3{fill:#ea847c;}</style><clipPath id="clip-path"><rect class="cls-1" width="2" height="2"/></clipPath></defs><title>Artboard 10</title><g class="cls-2"><g id="Attachment"><rect id="Rectangle_314" data-name="Rectangle 314" class="cls-1" width="2" height="2"/><path id="Path_125" data-name="Path 125" class="cls-3" d="M.7,2a.63.63,0,0,1-.47-.2A.64.64,0,0,1,0,1.3a.7.7,0,0,1,.05-.25A.47.47,0,0,1,.17.85L.5.52A.42.42,0,0,1,.8.4a.48.48,0,0,1,.32.13.43.43,0,0,1,.13.34.42.42,0,0,1-.12.3L1,1.33a.12.12,0,0,1-.08,0,.18.18,0,0,1-.1,0,.3.3,0,0,1,0-.1.42.42,0,0,1,0-.1L1,1A.09.09,0,0,0,1,.85.18.18,0,0,0,.93.7a.2.2,0,0,0-.11,0L.7.7.35,1a.5.5,0,0,0-.08.27.48.48,0,0,0,.13.32.32.32,0,0,0,.17.1.29.29,0,0,0,.16,0,.58.58,0,0,0,.14,0L1,1.63,1.63,1A.4.4,0,0,0,1.75.68.42.42,0,0,0,1.6.37a.54.54,0,0,0-.2-.1H1.25a.31.31,0,0,0-.12,0,.16.16,0,0,1-.1,0A.1.1,0,0,1,1,.27s0-.05,0-.1L1,.08A.76.76,0,0,1,1.33,0a.66.66,0,0,1,.44.17A.71.71,0,0,1,2,.67a.66.66,0,0,1-.18.48l-.67.67A.63.63,0,0,1,.7,2Z"/></g></g></svg>