<svg id="Layer_1" data-name="Layer 1" xmlns="http://www.w3.org/2000/svg" xmlns:xlink="http://www.w3.org/1999/xlink" viewBox="0 0 20 20"><defs><style>.cls-1{fill:none;}.cls-2{clip-path:url(#clip-path);}.cls-3{fill:#ea847c;}</style><clipPath id="clip-path"><rect class="cls-1" x="4.5" y="4" width="10" height="10"/></clipPath></defs><title>pil</title><g class="cls-2"><g id="Attachment"><rect id="Rectangle_314" data-name="Rectangle 314" class="cls-1" x="4.5" y="4" width="10" height="10"/><path id="Path_125" data-name="Path 125" class="cls-3" d="M8,14a3.12,3.12,0,0,1-2.33-1A3.19,3.19,0,0,1,4.5,10.5a3.36,3.36,0,0,1,.25-1.25,2.79,2.79,0,0,1,.58-1L7,6.58A2,2,0,0,1,8.5,6a2.3,2.3,0,0,1,1.58.67,2.13,2.13,0,0,1,.67,1.66,2,2,0,0,1-.58,1.5l-.92.84a.63.63,0,0,1-.42.16.9.9,0,0,1-.5-.16,1.17,1.17,0,0,1-.16-.5,1.09,1.09,0,0,1,.16-.5l.92-.92a.49.49,0,0,0,.25-.5,1,1,0,0,0-.33-.75,1,1,0,0,0-.59-.17A1.34,1.34,0,0,0,8,7.5L6.25,9.17a2.33,2.33,0,0,0-.42,1.33,2.46,2.46,0,0,0,.67,1.58,1.62,1.62,0,0,0,.83.5,1.52,1.52,0,0,0,.84.09c.25-.09.5-.09.66-.17a1.56,1.56,0,0,0,.5-.33l3.34-3.34a1.83,1.83,0,0,0,.58-1.41,2.2,2.2,0,0,0-.75-1.59,4.07,4.07,0,0,0-1-.5h-.75a1.89,1.89,0,0,0-.58.25,1.08,1.08,0,0,1-.5.09.56.56,0,0,1-.42-.34c-.08-.08-.08-.25-.08-.5a1.3,1.3,0,0,1,.33-.41A3.24,3.24,0,0,1,11.17,4a3,3,0,0,1,2.16.83,3.5,3.5,0,0,1,1.17,2.5,3.24,3.24,0,0,1-.92,2.42l-3.33,3.33A3.07,3.07,0,0,1,8,14Z"/></g></g></svg>
